<?xml version="1.0" encoding="utf-8"?>
<!-- Generator: Adobe Illustrator 26.1.0, SVG Export Plug-In . SVG Version: 6.00 Build 0)  -->
<!DOCTYPE svg PUBLIC "-//W3C//DTD SVG 1.1//EN" "http://www.w3.org/Graphics/SVG/1.1/DTD/svg11.dtd" [
	<!ENTITY st0 "fill:#FFFFFF;">
]>
<svg version="1.1" id="レイヤー_1" xmlns="http://www.w3.org/2000/svg" xmlns:xlink="http://www.w3.org/1999/xlink" x="0px"
	 y="0px" viewBox="0 0 86.5 125.0045395" style="enable-background:new 0 0 86.5 125.0045395;" xml:space="preserve">
<path id="合体_2" style="&st0;" d="M72.3280029,124.0070038c-0.1429977-0.0709991-0.2829971-0.1470032-0.4209976-0.2269974
	c-2.8530502-1.6072006-4.6204224-4.625412-4.6259995-7.9000015v-13.6800079h5.0479965v13.7929993
	c0.035759,2.3226318,1.9476166,4.1765137,4.2702484,4.1407547c2.2722244-0.0349808,4.1057739-1.8685303,4.1407547-4.1407547
	v-13.7929993h5.0479965v13.6839981c-0.0055771,3.2745895-1.7729492,6.2928009-4.6259995,7.9000015
	c-0.1380005,0.0800018-0.2779999,0.1559982-0.4209976,0.2269974c-2.6472855,1.3243103-5.7637177,1.3243103-8.4110031,0
	L72.3280029,124.0070038z M51.3370056,124.0070038c-0.1450005-0.0699997-0.2840004-0.1460037-0.4239998-0.2269974
	c-2.8523598-1.6077652-4.6192093-4.6257324-4.625-7.9000015v-13.6800079h5.0489998v13.7929993
	c0,2.3218079,1.8821945,4.2040024,4.2040024,4.2040024c2.321804,0,4.2039986-1.8821945,4.2039986-4.2040024v-13.7929993h5.0489998
	v13.6839981c-0.0055771,3.2745895-1.7729492,6.2928009-4.6259995,7.9000015
	c-0.1380005,0.0810013-0.2779999,0.1569977-0.4230003,0.2269974c-2.6461296,1.3247223-5.7618713,1.3247223-8.4080009,0V124.0070038z
	 M30.3440056,124.0070038c-0.1429996-0.0699997-0.2830009-0.1460037-0.4209995-0.2269974
	c-2.8533573-1.6068878-4.6208439-4.6252975-4.6259995-7.9000015v-13.6800079h5.0480003v13.7929993
	c0.0357933,2.3226318,1.9476757,4.1764832,4.2703075,4.1406937c2.2721825-0.0350189,4.1056786-1.868515,4.1406937-4.1406937
	v-13.7929993h5.0439911v13.6839981c-0.0051537,3.274704-1.772644,6.2931137-4.6259995,7.9000015
	c-0.1380005,0.0810013-0.2779999,0.1569977-0.4210014,0.2269974c-2.6472816,1.3243103-5.7637177,1.3243103-8.4109993,0
	L30.3440056,124.0070038z M17.8350067,123.8670044v-9.5170059l-0.052,0.0500031v-0.1709976l0,0l-2.3380003,2.3209991
	l-4.0170002,3.9899979l-6.398006-6.340004v9.6679993H0v-22.6399994l5.0300002,4.9940033l6.3759999,6.3280029l6.427-6.3820038
	l4.9770012-4.9400024v22.6399994L17.8350067,123.8670044z M14.7530003,85.8529968l-7.3740001-7.3219986L0,71.2099991V0
	l14.7749996,14.6669998v71.185997H14.7530003z M71.7210007,14.6669998L86.5,0v71.1449966L79.0910034,78.5l-7.3700027,7.314003
	V14.6669998z M47.8160019,38.394001l14.7729988-14.6630001v47.4160004L47.8160019,85.8150024V38.394001z M23.9069996,71.1470032
	V23.7320004L38.6839981,38.394001v47.4199944L23.9069996,71.1470032z"/>
</svg>
