<?xml version="1.0" encoding="utf-8"?>
<!-- Generator: Adobe Illustrator 26.1.0, SVG Export Plug-In . SVG Version: 6.00 Build 0)  -->
<!DOCTYPE svg PUBLIC "-//W3C//DTD SVG 1.1//EN" "http://www.w3.org/Graphics/SVG/1.1/DTD/svg11.dtd" [
	<!ENTITY st0 "fill:#FFFFFF;">
]>
<svg version="1.1" id="レイヤー_1" xmlns="http://www.w3.org/2000/svg" xmlns:xlink="http://www.w3.org/1999/xlink" x="0px"
	 y="0px" viewBox="0 0 179.0744781 50" style="enable-background:new 0 0 179.0744781 50;" xml:space="preserve">
<g>
	<polygon points="23.8113403,23.8113403 10.5027514,10.5027514 0,0 0,47.6175957 10.5027514,47.6175957 10.5027514,27.2816982 
		23.8470707,40.6260185 32.2339363,32.234066 37.1148415,27.353159 37.1199303,27.348074 37.1199303,27.7057648 
		37.2272491,27.598444 37.2272491,47.6175957 47.6175957,47.6175957 47.6175957,0 37.2272491,10.3903456 	"/>
	<path d="M80.8986664,31.0535431c0,4.8177071-3.9290085,8.7191277-8.7754593,8.7191277
		c-4.8516541,0-8.7806664-3.9014206-8.7806664-8.7191277V2.0442963H52.8046913v28.7775669
		c0,7.0978794,3.8823471,13.3000698,9.6566544,16.6097012c0.2902985,0.1698799,0.5805969,0.329464,0.8811951,0.4787445
		C65.9757004,49.2485046,68.9613342,50,72.1232071,50c3.1618805,0,6.1423035-0.7514954,8.7754593-2.0896912
		c0.3007278-0.1492805,0.5908966-0.3088646,0.8811951-0.4787445c5.7743073-3.3096313,9.6566544-9.5118217,9.6566544-16.6097012
		V2.0442963H80.8986664V31.0535431z"/>
	<path d="M124.7177124,31.0535431c0,4.8177071-3.9291382,8.7191277-8.7755814,8.7191277
		c-4.8516617,0-8.7806702-3.9014206-8.7806702-8.7191277V2.0442963H96.6236115v28.7775669
		c0,7.0978794,3.8823471,13.3000698,9.6566544,16.6097012c0.2902985,0.1698799,0.5805969,0.329464,0.8811951,0.4787445
		C109.7946167,49.2485046,112.7802505,50,115.942131,50c3.1618729,0,6.1422958-0.7514954,8.7755814-2.0896912
		c0.3005981-0.1492805,0.5908966-0.3088646,0.8810654-0.4787445c5.774437-3.3096313,9.6567764-9.5118217,9.6567764-16.6097012
		V2.0442963h-10.5378418V31.0535431z"/>
	<path d="M168.5366364,2.0442963v29.0092468c0,4.8177071-3.9290161,8.7191277-8.7754669,8.7191277
		c-4.8516541,0-8.7806702-3.9014206-8.7806702-8.7191277V2.0442963h-10.5378418v28.7775669
		c0,7.0978794,3.8823395,13.3000698,9.6566467,16.6097012c0.2902985,0.1698799,0.5804749,0.329464,0.8811951,0.4787445
		C153.6136627,49.2485046,156.5993042,50,159.7611694,50c3.1618805,0,6.1423035-0.7514954,8.7754669-2.0896912
		c0.3005981-0.1492805,0.5908966-0.3088646,0.8811951-0.4787445c5.7743073-3.3096313,9.6566467-9.5118217,9.6566467-16.6097012
		V2.0442963H168.5366364z"/>
</g>
</svg>
