<?xml version="1.0" encoding="utf-8"?>
<!-- Generator: Adobe Illustrator 26.1.0, SVG Export Plug-In . SVG Version: 6.00 Build 0)  -->
<!DOCTYPE svg PUBLIC "-//W3C//DTD SVG 1.1//EN" "http://www.w3.org/Graphics/SVG/1.1/DTD/svg11.dtd" [
	<!ENTITY st0 "fill:#FFFFFF;">
]>
<svg version="1.1" id="レイヤー_1" xmlns="http://www.w3.org/2000/svg" xmlns:xlink="http://www.w3.org/1999/xlink" x="0px"
	 y="0px" viewBox="0 0 152.0374298 50" style="enable-background:new 0 0 152.0374298 50;" xml:space="preserve">
<g>
	<polygon style="&st0;" points="74.4064331,24.4064331 67.7516937,17.7516937 62.5,12.5 62.5,36.3098145 67.7516937,36.3098145 
		67.7516937,26.1408806 74.4236908,32.8128815 78.6174774,28.6174774 81.0581207,26.1768341 81.0581207,26.3549805 
		81.1112366,26.3018608 81.1112366,36.3113403 86.3066711,36.3113403 86.3066711,12.5 81.1143875,17.6954269 	"/>
	<path style="&st0;" d="M102.9491425,28.0268669c0,2.4240494-1.9650421,4.3890953-4.3890991,4.3890953
		c-2.4240417,0-4.3891907-1.9650459-4.3891907-4.3890953V13.5219574h-5.2688599v14.3892288
		c0.0020065,3.4342766,1.8447876,6.6040039,4.8282623,8.304882c0.14534,0.0844002,0.2905884,0.164032,0.4405975,0.2390862
		c2.7603149,1.3931274,6.0180664,1.3931274,8.7782898,0c0.1562119-0.0750542,0.2953491-0.1563072,0.4405975-0.2390862
		c2.9835663-1.7008781,4.826355-4.8706055,4.8282623-8.304882V13.5219574h-5.2688599V28.0268669z"/>
	<path style="&st0;" d="M124.8588562,28.0268669c0,2.4240494-1.9650421,4.3890953-4.3890991,4.3890953
		c-2.4240417,0-4.3890915-1.9650459-4.3890915-4.3890953V13.5219574h-5.2688599v14.3892288
		c0.0019073,3.4342766,1.8446884,6.6040039,4.8281631,8.304882c0.14534,0.0844002,0.2906799,0.164032,0.4406967,0.2390862
		c2.7602158,1.3931274,6.0179672,1.3931274,8.7782822,0c0.1562195-0.0750542,0.2952576-0.1563072,0.4405975-0.2390862
		c2.9834747-1.7008781,4.8262634-4.8706055,4.8281708-8.304882V13.5219574h-5.2688599V28.0268669z"/>
	<path style="&st0;" d="M146.7655182,13.5219574v14.5049095c0,2.4240494-1.9650421,4.3890953-4.3890991,4.3890953
		c-2.4240417,0-4.3891907-1.9650459-4.3891907-4.3890953V13.5219574h-5.2657013v14.3892288
		c0.0018921,3.4342766,1.8446808,6.6040039,4.8282471,8.304882c0.1452484,0.0844002,0.2905884,0.164032,0.4406128,0.2390862
		c2.7602081,1.3931274,6.0179596,1.3931274,8.7782745,0c0.1562195-0.0750542,0.2952576-0.1563072,0.4405975-0.2390862
		c2.9834747-1.7008781,4.8262634-4.8706055,4.8281708-8.304882V13.5219574H146.7655182z"/>
	<polygon style="&st0;" points="13.8208389,41.4354324 22.3625183,49.9771118 22.3625183,22.3604202 13.8208389,13.8187408 	"/>
	<polygon style="&st0;" points="27.6395798,49.9771118 36.1812592,41.4354324 36.1812592,13.8208389 27.6395798,22.3625183 	"/>
	<polygon style="&st0;" points="41.4604187,49.9792099 45.7187653,45.7208633 50,41.4375305 50,0 41.4604187,8.5416794 	"/>
	<polygon style="&st0;" points="0,41.4708138 4.2646408,45.7354546 8.5270882,50 8.5416794,50 8.5416794,8.5416794 0,0 	"/>
</g>
</svg>
