<?xml version="1.0" encoding="utf-8"?>
<!-- Generator: Adobe Illustrator 26.1.0, SVG Export Plug-In . SVG Version: 6.00 Build 0)  -->
<!DOCTYPE svg PUBLIC "-//W3C//DTD SVG 1.1//EN" "http://www.w3.org/Graphics/SVG/1.1/DTD/svg11.dtd" [
	<!ENTITY st0 "fill:#FFFFFF;">
]>
<svg version="1.1" id="レイヤー_1" xmlns="http://www.w3.org/2000/svg" xmlns:xlink="http://www.w3.org/1999/xlink" x="0px"
	 y="0px" viewBox="0 0 86.5 125.0045395" style="enable-background:new 0 0 86.5 125.0045395;" xml:space="preserve">
<g id="グループ_17486_00000079476288812021090780000015169054544235175552_" transform="translate(-644.5 -490.799)">
	<path id="合体_2_00000173868653277159810380000013918779384884875402_" d="M716.8280029,614.8060303
		c-0.1430054-0.0710449-0.28302-0.1470337-0.4210205-0.2269897c-2.8530273-1.6072388-4.6204224-4.6254272-4.6259766-7.9000244
		v-13.6799927h5.0479736v13.7929688c0.0357666,2.3226318,1.9476318,4.1765137,4.2702637,4.1407471
		c2.2722168-0.0349731,4.1057739-1.8685303,4.1407471-4.1407471v-13.7929688h5.0480347v13.68396
		c-0.0056152,3.2745972-1.7729492,6.2928467-4.6260376,7.9000244c-0.1380005,0.0800171-0.2779541,0.1560059-0.4209595,0.2269897
		c-2.6472778,1.3243408-5.7637329,1.3243408-8.4110107,0L716.8280029,614.8060303z M695.8370361,614.8060303
		c-0.1450195-0.0700073-0.2840576-0.1459961-0.4240112-0.2269897c-2.852356-1.6077881-4.6192017-4.6257324-4.625-7.9000244
		v-13.6799927h5.0490112v13.7929688c0,2.3218384,1.8821411,4.2040405,4.2039795,4.2040405
		c2.3217773,0,4.2039795-1.8822021,4.2039795-4.2040405v-13.7929688h5.0490112v13.68396
		c-0.0055542,3.2745972-1.7729492,6.2928467-4.6259766,7.9000244c-0.1380005,0.0809937-0.2780151,0.1569824-0.4230347,0.2269897
		c-2.6461182,1.324707-5.7618408,1.324707-8.407959,0V614.8060303z M674.8439941,614.8060303
		c-0.1430054-0.0700073-0.282959-0.1459961-0.4209595-0.2269897c-2.8533936-1.6069336-4.6208496-4.6253052-4.6260376-7.9000244
		v-13.6799927h5.0480347v13.7929688c0.0357666,2.3226318,1.9476318,4.1765137,4.2702637,4.140686
		c2.2722168-0.0349731,4.1057129-1.8684692,4.140686-4.140686v-13.7929688h5.0440063v13.68396
		c-0.005127,3.2747192-1.772644,6.2931519-4.6259766,7.9000244c-0.1380005,0.0809937-0.2780151,0.1569824-0.4210205,0.2269897
		c-2.6472778,1.3243408-5.7637329,1.3243408-8.4110107,0L674.8439941,614.8060303z M662.335022,614.6660156v-9.5170288
		l-0.052002,0.0500488v-0.1710205l0,0l-2.3380127,2.3209839l-4.0170288,3.9899902l-6.3979492-6.3399658v9.6679688H644.5v-22.6400146
		l5.0300293,4.9940186l6.3759766,6.3280029l6.427002-6.382019l4.9769897-4.9400024v22.6400146L662.335022,614.6660156z
		 M659.2529907,576.6519775l-7.3739624-7.3219604L644.5,562.0090332v-71.210022l14.7750244,14.6669922v71.1859741H659.2529907z
		 M716.2210083,505.4660034L731,490.7990112v71.1450195l-7.4089966,7.3549805l-7.3699951,7.3140259V505.4660034z
		 M692.315979,529.1929932l14.7730103-14.6629639v47.4159546l-14.7730103,14.6680298V529.1929932z M668.4069824,561.9459839
		v-47.414978l14.7770386,14.6619873v47.4199829L668.4069824,561.9459839z"/>
</g>
</svg>
